PathFileType	4	(X/Y/Z)	C:\InverseKin\data\OA1\Walking\OA1_80_1.trc
DataRate	CameraRate	NumFrames	NumMarkers	Units	OrigDataRate	OrigDataStartFrame	OrigNumFrames
100.00	100.00	       6	42	mm	100.00	1	       291
Frame#	Time	R.Shoulder			R.Clavicle			R.Bicep			R.Elbow			R.Forearm			R.Wrist			L.Shoulder			L.Clavicle			L.Scapula			L.Bicep			L.Elbow			L.Forearm			L.Wrist			R.ASIS			R.Iliac			R.PSIS			S2			L.PSIS			L.Iliac			L.ASIS			R.TH1			R.TH2			R.TH3			R.Knee			R.SH1			R.SH2			R.SH3			R.SH4			R.Ankle			R.Heel			R.MT5			L.TH1			L.TH2			L.TH3			L.TH4			L.Knee			L.SH1			L.SH2			L.SH3			L.Ankle			L.Heel			L.MT5			
		X1	Y1	Z1	X2	Y2	Z2	X3	Y3	Z3	X4	Y4	Z4	X5	Y5	Z5	X6	Y6	Z6	X7	Y7	Z7	X8	Y8	Z8	X9	Y9	Z9	X10	Y10	Z10	X11	Y11	Z11	X12	Y12	Z12	X13	Y13	Z13	X14	Y14	Z14	X15	Y15	Z15	X16	Y16	Z16	X17	Y17	Z17	X18	Y18	Z18	X19	Y19	Z19	X20	Y20	Z20	X21	Y21	Z21	X22	Y22	Z22	X23	Y23	Z23	X24	Y24	Z24	X25	Y25	Z25	X26	Y26	Z26	X27	Y27	Z27	X28	Y28	Z28	X29	Y29	Z29	X30	Y30	Z30	X31	Y31	Z31	X32	Y32	Z32	X33	Y33	Z33	X34	Y34	Z34	X35	Y35	Z35	X36	Y36	Z36	X37	Y37	Z37	X38	Y38	Z38	X39	Y39	Z39	X40	Y40	Z40	X41	Y41	Z41	X42	Y42	Z42	

1	0.000	-1542.15417	12.97525	1388.59204	-1523.77502	177.93944	1339.45776	-1473.49915	8.91215	1276.25391	-1439.74182	-82.69026	1105.45508	-1330.75781	-30.14873	1075.09753	-1234.09851	-41.04516	991.56824	-1608.72791	394.32376	1372.03491	-1525.87573	233.54669	1342.88196	-1740.32422	280.57809	1309.84814	-1634.73047	395.28876	1127.23010	-1732.96387	429.26126	1078.76758	-1667.77502	411.67535	927.70123	-1692.78040	445.91937	840.49237	-1500.77271	55.30973	988.96130	-1627.10840	10.88229	1072.64331	-1743.89905	103.00042	1024.89453	-1754.71436	159.85260	1003.34290	-1745.14307	217.20714	1018.89313	-1639.31384	345.48474	1042.31836	-1517.64172	303.86813	974.61224	-1538.15759	56.19412	717.07208	-1553.33691	71.45419	641.10498	-1678.17273	-7.37681	653.60254	-1682.30359	24.41145	498.64713	-1673.41248	108.50380	330.05203	-1700.85999	111.70717	262.19635	-1734.06299	16.19042	351.87396	-1768.16431	20.37797	287.22354	-1814.01208	61.66531	108.65257	-1904.56714	113.97283	55.79251	-1715.35986	37.22970	43.61256	-1475.87048	311.29990	788.29504	-1448.86987	303.23090	712.22687	-1608.18665	355.85507	740.39185	-1582.24304	345.37234	658.99817	-1475.74280	335.81293	508.46008	-1366.65479	324.27371	390.95227	-1341.31763	318.21741	319.65549	-1444.03699	340.49100	277.68988	-1334.10669	333.92508	120.58727	-1376.06714	282.14236	41.76476	-1209.35315	371.63943	94.86118	
2	0.010	-1531.35962	15.02223	1386.64551	-1513.36902	177.52298	1337.38940	-1462.38330	10.60727	1274.82275	-1426.92822	-80.18088	1104.00903	-1317.72083	-28.14994	1075.89160	-1219.92322	-37.53784	993.96979	-1598.17529	395.53018	1369.11108	-1515.33398	234.81529	1340.73157	-1730.28320	283.04880	1308.12488	-1626.94946	397.00262	1125.64600	-1726.03296	429.78024	1077.93054	-1662.46631	411.99155	925.79492	-1688.52112	446.66290	838.63135	-1489.91565	56.82309	987.55127	-1616.19482	12.32171	1070.64514	-1733.49951	104.61393	1023.05078	-1743.86499	161.36143	1001.58380	-1734.06311	219.22751	1016.87433	-1628.82251	346.83340	1040.44470	-1507.39929	304.46429	973.03485	-1529.06812	57.22676	714.03296	-1545.20569	70.15033	638.28668	-1670.44238	-5.70566	652.50446	-1676.59436	24.41702	498.11914	-1669.16846	108.89823	329.11096	-1697.86877	111.71487	262.08221	-1730.35364	16.73198	351.96335	-1765.04602	21.01370	287.58109	-1813.56238	61.64589	108.98709	-1904.57397	114.28445	56.78620	-1715.41382	37.36018	43.79280	-1465.09167	314.21127	785.68768	-1438.31006	305.56079	709.35132	-1597.89844	356.42133	736.88184	-1572.70557	345.87961	656.86591	-1465.63269	337.27707	507.17398	-1353.15808	324.31091	391.87302	-1326.50879	318.65021	321.43442	-1427.93140	343.31250	277.46481	-1314.76501	336.02609	122.71362	-1356.00085	286.61484	41.68288	-1188.84058	372.39178	99.80423	
3	0.020	-1521.07678	16.24288	1384.84424	-1502.35950	181.33122	1335.26563	-1451.03394	12.78415	1273.53442	-1415.23975	-77.64981	1103.07019	-1305.29504	-25.96755	1076.78564	-1205.71216	-34.87942	996.41925	-1588.11938	397.15088	1367.58228	-1504.81995	236.73012	1338.75659	-1719.20776	284.96475	1306.37134	-1618.82629	399.13501	1123.94922	-1718.15149	430.08710	1077.06421	-1656.21277	414.28320	924.39752	-1684.25708	448.49921	838.28253	-1478.98682	58.73069	985.93536	-1605.94043	13.64451	1069.13074	-1722.53455	106.40656	1021.04797	-1733.21252	162.80661	999.32849	-1723.37024	220.67551	1014.45325	-1617.91663	348.00662	1039.12988	-1495.75244	306.04822	970.85834	-1521.58923	56.60841	712.66785	-1537.47363	71.74613	636.50427	-1662.66663	-5.43936	651.72363	-1669.77222	25.95074	496.94949	-1664.90906	109.87565	327.52161	-1694.77954	111.54238	261.19482	-1725.48352	17.27016	351.63574	-1761.13928	21.60227	288.04437	-1812.73132	61.54564	110.18987	-1904.03381	113.93064	58.29117	-1715.75452	37.48393	44.05496	-1453.82275	315.03397	783.29523	-1427.49792	307.60352	707.05023	-1587.22864	357.86115	735.35632	-1562.17310	346.93024	655.08417	-1454.40320	337.97269	505.59384	-1340.30200	325.06912	391.52921	-1312.96973	319.37567	320.72464	-1412.64758	345.42746	275.79086	-1297.79199	337.45578	122.90904	-1338.41760	289.47339	41.01937	-1170.70557	372.61346	102.88892	
4	0.030	-1510.41602	18.16332	1383.37463	-1492.25012	184.00352	1333.79297	-1440.23560	14.88123	1272.30859	-1402.75098	-75.21901	1101.21240	-1293.10168	-23.47099	1077.37695	-1192.51099	-32.41211	998.55365	-1577.81311	399.65482	1365.32117	-1493.89539	240.16710	1336.93408	-1708.59595	286.90723	1304.08203	-1610.26917	401.75247	1122.23889	-1710.05103	430.89658	1075.86877	-1649.68274	414.66907	922.19196	-1678.63477	449.53015	836.51666	-1468.28137	59.75049	983.90912	-1594.47778	15.73398	1066.82458	-1711.53223	108.16420	1019.34766	-1720.47705	164.85849	997.22137	-1711.95532	222.25999	1012.50201	-1606.97424	349.29514	1037.60034	-1484.53833	308.89291	969.72351	-1512.72534	59.19959	709.43427	-1529.07654	72.43144	633.74896	-1654.41736	-4.14876	651.33447	-1663.09363	26.37682	496.93777	-1660.66626	109.66885	326.79352	-1691.31018	111.68331	260.41238	-1721.39075	17.56043	351.93588	-1757.91821	21.70659	288.91516	-1811.51599	61.04324	111.17862	-1903.58325	113.82599	59.91728	-1715.37097	37.27459	43.78654	-1441.86719	315.69705	781.33984	-1416.05737	310.36212	704.89258	-1576.15649	359.66934	734.35431	-1550.96179	348.19687	653.57623	-1442.05884	339.61566	504.81967	-1328.30774	325.58026	390.92059	-1300.35083	319.70596	320.81769	-1399.81702	347.70285	274.93668	-1283.70496	338.38022	122.42027	-1323.42407	290.35049	39.84840	-1155.67468	371.55124	103.09053	
5	0.040	-1499.28174	19.83150	1381.20300	-1481.12012	185.50462	1331.69385	-1429.06909	17.04215	1270.55127	-1390.82727	-73.07719	1100.24231	-1280.64709	-21.05280	1077.71387	-1178.75745	-29.51722	999.69855	-1568.20605	401.26294	1363.84485	-1483.33752	241.07886	1334.25854	-1697.66296	288.74255	1302.50330	-1601.37512	404.14819	1120.66772	-1702.18433	432.49261	1074.93835	-1643.11719	416.74640	921.36310	-1673.37744	451.02365	835.11200	-1457.12451	61.43383	982.30286	-1583.78784	17.15232	1064.96680	-1700.13416	109.97098	1017.33240	-1710.33911	166.56488	995.51312	-1700.78088	224.14252	1010.35846	-1595.44385	351.03497	1035.82788	-1473.32397	309.88446	968.28235	-1502.97473	59.30845	707.93256	-1520.23022	73.06609	632.99261	-1645.38562	-2.57934	650.29230	-1655.78967	27.78544	495.87183	-1655.81238	110.15778	325.51385	-1687.65613	111.97472	259.40543	-1716.47217	18.12143	352.22668	-1754.21387	21.88544	289.33493	-1811.15808	60.70460	112.82993	-1902.88831	113.50129	61.66113	-1715.37097	37.27459	43.78654	-1429.95923	320.16223	780.85480	-1403.38733	312.46011	703.62262	-1564.98340	361.47446	732.82635	-1539.10681	348.60336	651.52081	-1429.36731	340.99625	503.97931	-1316.32397	326.66037	389.04633	-1288.34229	320.08072	319.07346	-1387.51624	348.13864	272.39041	-1271.75500	338.34232	120.13341	-1311.32568	289.72534	37.73072	-1143.74036	370.89630	101.31871	
6	0.050	-1488.90491	22.37735	1380.37646	-1470.44238	187.12749	1330.42615	-1417.90601	19.44214	1268.91565	-1379.84460	-70.52757	1098.10535	-1268.89258	-18.89503	1077.80847	-1166.35132	-27.25833	1001.18658	-1557.15454	402.84210	1361.10693	-1472.29102	242.77928	1333.38281	-1686.80164	290.41818	1300.19690	-1591.92249	405.61191	1118.78625	-1693.24072	433.61801	1073.92041	-1635.84558	416.93692	918.93695	-1667.60803	451.75369	833.92828	-1445.36450	62.87496	979.98529	-1572.27222	19.17073	1062.70325	-1688.60254	111.95658	1015.50293	-1699.44995	168.69690	993.82306	-1689.84338	225.94427	1008.74603	-1584.64526	353.12677	1034.36218	-1461.08252	312.83173	966.98383	-1493.34436	60.71428	705.91632	-1511.09985	73.67368	630.65961	-1636.38171	-1.04052	649.25470	-1647.68286	28.28459	495.07550	-1650.67834	109.64455	324.07498	-1683.62244	112.25985	258.89734	-1710.52161	18.84813	352.08755	-1749.69153	21.52854	290.31107	-1809.79895	60.36782	114.16602	-1902.31311	113.78098	64.73993	-1715.31689	37.15645	43.80825	-1417.58826	322.24573	780.44617	-1391.50403	313.59067	702.89990	-1552.28455	363.67126	731.94885	-1526.47437	351.16559	650.73840	-1416.35474	342.57587	502.79315	-1304.88757	326.61597	386.70938	-1277.18201	320.14786	316.57410	-1376.90784	348.50134	270.83337	-1262.52014	338.23886	117.73682	-1301.86816	288.20282	35.72759	-1134.79797	370.84122	97.57302	
